<?xml version="1.0" standalone="no"?>
<!DOCTYPE svg PUBLIC "-//W3C//DTD SVG 20010904//EN"
 "http://www.w3.org/TR/2001/REC-SVG-20010904/DTD/svg10.dtd">
<svg version="1.0" xmlns="http://www.w3.org/2000/svg"
 width="190.000000pt" height="265.000000pt" viewBox="0 0 190.000000 265.000000"
 preserveAspectRatio="xMidYMid meet">

<g transform="translate(0.000000,265.000000) scale(0.100000,-0.100000)"
fill="#000000" stroke="none">
<path d="M822 2630 c-103 -15 -211 -48 -321 -100 -134 -64 -206 -117 -312
-227 -99 -103 -151 -196 -168 -303 -14 -86 -15 -1261 -1 -1350 28 -180 202
-383 434 -506 181 -96 323 -129 536 -122 120 4 161 10 235 32 185 56 327 138
458 265 95 92 147 168 179 258 l23 68 0 685 0 685 -25 65 c-37 94 -89 166
-183 256 -97 93 -165 140 -290 199 -172 82 -394 119 -565 95z m373 -94 c183
-54 374 -170 483 -292 29 -32 72 -97 95 -143 l42 -84 0 -692 0 -692 -44 -88
c-70 -142 -200 -260 -389 -354 -297 -149 -566 -148 -871 1 -204 100 -356 255
-410 416 -20 59 -21 82 -21 717 0 639 1 657 21 718 74 221 328 420 643 503 80
21 108 24 226 20 110 -2 152 -8 225 -30z"/>
<path d="M909 2541 c-30 -12 -111 -85 -120 -109 -13 -34 13 -90 45 -98 14 -3
43 -3 64 0 20 4 54 7 74 6 27 0 41 5 52 22 19 26 21 99 4 116 -14 14 -64 16
-72 3 -4 -5 -16 -4 -30 2 l-25 12 20 21 c21 23 15 36 -12 25z m22 -93 c15 -28
2 -55 -32 -67 -58 -20 -104 20 -74 65 24 37 87 38 106 2z m67 -24 c2 -28 -2
-45 -13 -54 -13 -11 -15 -8 -15 21 0 19 -3 45 -7 58 -5 19 -2 22 13 19 14 -2
20 -13 22 -44z"/>
<path d="M1097 2473 c-4 -3 -7 -15 -7 -25 0 -23 26 -24 39 0 9 15 10 14 11 -6
0 -27 -26 -40 -50 -24 -23 14 -30 6 -30 -34 0 -38 38 -74 79 -74 34 0 48 10
60 42 8 22 6 31 -10 52 -15 19 -17 26 -7 26 25 0 58 -31 58 -53 0 -31 -27 -67
-51 -67 -11 0 -17 -4 -14 -10 11 -17 64 -11 85 10 29 29 27 90 -4 119 -19 18
-33 22 -59 19 -26 -3 -38 1 -46 14 -11 18 -42 24 -54 11z m70 -79 c10 -26 -21
-48 -53 -37 -37 12 -43 33 -10 33 13 0 28 5 31 10 9 15 25 12 32 -6z"/>
<path d="M631 2413 c-16 -16 -36 -27 -48 -25 -24 4 -47 -22 -39 -44 8 -20 41
-13 40 9 -1 9 2 17 7 17 5 0 9 -13 9 -30 0 -23 -4 -30 -20 -30 -28 0 -25 -25
7 -49 28 -23 49 -21 93 7 14 9 31 17 38 18 53 9 70 87 27 129 -33 34 -79 33
-114 -2z m75 -21 c25 -16 35 -51 23 -74 -12 -23 -13 -23 -21 9 -9 34 -40 58
-64 49 -8 -3 -14 -1 -14 3 0 18 55 27 76 13z m-47 -50 c14 -27 -13 -62 -46
-62 -25 0 -25 1 -10 18 10 10 17 25 17 34 0 31 24 37 39 10z"/>
<path d="M1297 2322 c-28 -31 -22 -70 15 -92 51 -31 98 -6 98 51 0 52 -78 79
-113 41z m82 -16 c17 -20 2 -46 -25 -46 -26 0 -40 20 -30 45 7 19 40 20 55 1z"/>
<path d="M324 2226 c-47 -55 -79 -98 -85 -115 -4 -9 -21 -31 -38 -50 -35 -37
-37 -49 -17 -76 12 -17 11 -22 -9 -41 -19 -18 -24 -35 -30 -115 -4 -52 -11
-112 -15 -134 -8 -34 -6 -43 11 -61 11 -12 33 -24 48 -27 34 -7 83 5 89 21 3
9 -3 10 -23 2 -28 -11 -91 -4 -100 10 -3 4 2 14 11 21 13 11 17 10 25 -3 10
-19 77 -18 88 1 14 22 11 122 -3 127 -19 7 28 54 54 54 40 0 56 88 20 113 -13
9 -17 20 -13 35 3 12 9 22 14 22 17 0 30 39 19 60 -9 16 -8 18 5 13 9 -3 29 4
46 16 16 12 33 20 38 17 5 -3 11 3 14 14 3 11 11 20 17 20 8 0 10 -9 6 -25 -9
-36 9 -31 27 7 21 43 -5 95 -29 57 -4 -8 -9 -7 -15 2 -9 15 -8 16 -29 -26 -17
-33 -52 -44 -76 -25 -20 17 -18 37 7 72 18 25 19 32 8 39 -24 15 -36 10 -65
-25z m40 -11 c-17 -26 -26 -30 -37 -18 -9 9 23 43 40 43 11 0 10 -5 -3 -25z
m-37 -88 c10 -21 8 -22 -28 -22 l-38 0 21 22 c12 13 24 23 28 23 4 0 11 -10
17 -23z m3 -52 c14 -17 4 -37 -18 -34 -30 3 -35 -1 -22 -16 16 -20 1 -38 -23
-29 -23 9 -23 70 1 83 24 15 48 13 62 -4z m-93 -85 c3 -11 11 -20 18 -20 7 0
18 -7 25 -15 9 -11 9 -15 1 -15 -22 0 -70 30 -81 50 -9 17 -8 20 11 20 12 0
23 -8 26 -20z m109 -85 c-10 -26 -31 -11 -34 24 l-3 33 22 -20 c13 -13 19 -27
15 -37z m-68 18 c25 -6 26 -11 12 -47 -6 -18 -17 -26 -33 -26 -32 0 -47 18
-47 58 0 31 2 34 23 27 12 -3 32 -9 45 -12z m-86 -23 c-2 -16 -8 -27 -13 -24
-11 6 -12 38 -2 47 14 14 19 6 15 -23z m16 -82 c7 -10 2 -20 -19 -39 -30 -28
-36 -20 -19 25 10 29 22 33 38 14z m42 -68 c0 -11 -7 -20 -15 -20 -8 0 -15 -4
-15 -10 0 -5 5 -10 10 -10 17 0 11 -30 -6 -37 -21 -8 -44 22 -44 57 0 34 7 40
42 40 21 0 28 -5 28 -20z m-90 -50 c0 -5 -5 -10 -11 -10 -5 0 -7 5 -4 10 3 6
8 10 11 10 2 0 4 -4 4 -10z"/>
<path d="M885 2254 c-135 -21 -255 -84 -360 -189 -86 -86 -128 -158 -145 -246
-13 -69 -13 -920 0 -990 17 -90 57 -157 144 -244 128 -127 266 -188 422 -188
157 1 293 62 420 188 87 87 127 154 144 244 13 71 13 921 0 992 -17 87 -58
157 -145 244 -85 86 -174 140 -275 169 -61 17 -159 26 -205 20z m198 -73 c190
-66 331 -201 372 -356 21 -84 22 -913 1 -995 -41 -155 -176 -288 -364 -357
-131 -49 -272 -29 -419 58 -71 43 -161 130 -196 191 -56 96 -58 124 -55 630
l3 463 31 65 c45 94 102 161 188 218 159 106 296 132 439 83z"/>
<path d="M876 2129 c-83 -13 -174 -65 -252 -143 -82 -82 -121 -154 -134 -247
-14 -91 -12 -772 1 -845 25 -135 130 -264 277 -336 82 -41 89 -43 176 -42 103
0 159 19 254 81 69 46 155 150 185 222 22 55 22 63 22 507 l0 450 -37 75 c-69
139 -214 252 -357 279 -60 11 -65 11 -135 -1z m191 -59 c156 -54 278 -193 303
-347 14 -81 13 -735 -1 -809 -38 -210 -285 -393 -478 -355 -135 27 -278 136
-337 256 l-29 60 0 450 0 450 34 64 c79 152 278 272 421 253 19 -2 58 -13 87
-22z"/>
<path d="M940 1975 l-5 -100 -43 43 c-42 42 -43 43 -105 40 -55 -3 -62 -5 -65
-25 -4 -28 38 -58 69 -48 19 6 21 4 14 -11 -4 -11 -10 -30 -12 -44 -10 -56
-14 -70 -21 -70 -4 0 -30 45 -57 100 -27 56 -51 97 -53 91 -2 -5 17 -50 42
-100 37 -74 46 -101 46 -144 0 -29 -4 -57 -9 -63 -5 -5 -11 -22 -13 -39 -3
-29 -6 -27 -83 67 -44 53 -81 92 -83 87 -2 -4 29 -47 68 -93 64 -76 71 -89 65
-116 -4 -16 -1 -55 5 -86 7 -30 10 -57 8 -59 -2 -2 -39 19 -81 47 -43 28 -80
48 -83 45 -4 -3 35 -32 85 -64 l91 -58 0 -42 c0 -24 -4 -43 -8 -43 -5 0 -45
13 -90 30 -45 16 -82 26 -82 21 0 -5 37 -21 83 -36 45 -15 88 -34 95 -43 6 -9
12 -33 12 -54 l0 -38 -96 0 c-62 0 -93 -4 -89 -10 4 -6 41 -9 96 -6 l91 5 14
-35 c8 -19 12 -38 10 -43 -3 -4 -53 -20 -111 -36 -58 -15 -105 -32 -105 -37 0
-5 8 -7 18 -4 9 3 59 17 110 31 l93 27 19 -24 c11 -13 19 -25 19 -28 0 -3 -56
-30 -126 -59 -69 -30 -122 -56 -116 -58 6 -2 66 21 134 50 115 51 126 54 151
41 15 -8 40 -14 55 -15 15 -1 -17 -9 -72 -19 -112 -20 -169 -39 -232 -76 l-43
-25 17 -32 c10 -18 50 -65 89 -104 182 -185 387 -189 580 -11 51 47 108 133
99 148 -21 33 -192 94 -298 105 -76 8 -83 23 -20 41 38 11 46 9 174 -47 73
-32 138 -59 143 -59 23 0 -15 21 -132 71 l-123 53 38 17 c49 24 54 23 151 -5
45 -13 82 -20 82 -16 0 8 -56 27 -132 45 -33 8 -35 16 -9 32 11 7 26 25 33 40
11 24 21 29 63 34 l50 6 -42 1 -42 2 3 72 c4 70 4 72 34 83 40 13 55 30 20 21
-14 -3 -33 -8 -40 -11 -10 -4 -18 6 -27 35 -6 22 -16 40 -22 40 -6 0 -7 -5 -3
-12 4 -7 3 -8 -4 -4 -21 13 -13 21 53 61 36 22 65 43 65 48 0 12 -9 8 -63 -28
-28 -19 -55 -35 -58 -35 -9 0 -52 69 -60 96 -5 17 11 43 78 123 46 56 83 106
81 111 -2 5 -39 -35 -83 -90 -44 -54 -83 -99 -87 -100 -5 0 -8 10 -8 21 0 19
-4 21 -30 16 -17 -4 -30 -2 -30 3 0 6 7 10 15 10 8 0 15 9 15 20 0 11 -4 20
-10 20 -20 0 -9 41 44 164 30 69 51 128 47 130 -4 3 -31 -53 -61 -125 -29 -71
-57 -129 -60 -129 -11 0 -36 32 -54 67 -9 18 -30 48 -46 66 -28 32 -29 40 -32
133 l-3 99 -5 -100z m-96 -53 c6 -9 -81 -9 -90 1 -4 4 13 7 39 7 25 0 48 -3
51 -8z m84 -74 c8 -8 13 -55 14 -132 l2 -121 3 113 c2 61 7 112 11 112 7 0 52
-65 52 -76 0 -4 13 -22 30 -40 l30 -34 -25 -56 c-14 -31 -25 -64 -24 -73 0 -9
9 4 20 29 12 26 23 40 27 33 4 -6 18 -13 32 -14 39 -6 38 -42 -4 -91 -20 -23
-36 -46 -36 -52 0 -6 17 8 38 32 l37 42 21 -32 c42 -64 41 -73 -19 -112 -50
-32 -77 -56 -62 -56 3 0 32 18 64 40 l58 39 22 -23 c41 -43 29 -59 -64 -90
-47 -15 -85 -31 -85 -36 0 -5 37 4 83 20 48 17 86 25 91 20 5 -5 5 -31 0 -62
l-9 -53 -90 -6 -90 -5 83 -2 c50 -1 82 -6 82 -13 0 -16 -62 -69 -81 -69 -9 0
-30 5 -47 11 -17 6 -37 9 -44 6 -7 -3 2 -8 20 -12 18 -4 35 -12 38 -16 6 -11
-42 -31 -73 -31 -13 0 -23 -4 -23 -8 0 -4 -12 -10 -26 -13 -26 -5 -26 -3 -22
37 3 22 18 72 33 109 34 85 40 131 26 183 -13 48 -52 94 -79 94 -17 0 -19 -7
-18 -57 1 -41 -6 -74 -23 -113 -31 -71 -38 -161 -17 -220 8 -24 13 -46 11 -48
-9 -10 -36 9 -29 20 5 7 1 9 -14 6 -13 -4 -27 1 -39 14 -17 19 -17 20 0 33 23
16 22 22 -5 21 -15 -1 -23 7 -29 27 -6 23 -4 27 12 27 10 0 19 5 19 10 0 6
-11 10 -25 10 -23 0 -25 4 -25 41 0 36 2 41 20 36 11 -3 20 -1 20 4 0 5 -11
11 -24 15 -19 4 -25 14 -29 42 -5 46 -3 48 28 28 35 -23 32 -5 -4 21 -35 26
-48 87 -27 127 l14 27 31 -38 c17 -21 31 -32 31 -26 0 6 -16 30 -36 54 -38 46
-40 67 -10 152 l12 37 34 -70 c19 -39 38 -70 42 -70 5 0 -12 39 -36 88 -44 87
-44 88 -25 111 11 14 19 39 19 62 0 37 2 39 24 33 14 -3 33 -1 43 5 23 13 27
13 41 -1z m56 -472 c33 -70 31 -92 -19 -226 -10 -25 -20 -70 -24 -100 l-7 -55
-19 35 c-28 52 -26 160 3 225 13 28 26 74 29 103 3 28 9 52 13 52 4 0 15 -15
24 -34z m-102 -469 c-44 -47 -110 -71 -204 -75 -52 -3 -88 0 -88 6 0 25 193
89 274 91 l39 1 -21 -23z m238 7 c74 -17 180 -62 180 -77 0 -6 -34 -8 -87 -5
-95 5 -148 25 -192 72 l-24 26 29 0 c16 0 58 -7 94 -16z"/>
<path d="M1524 2190 c-27 -11 -54 -48 -54 -74 0 -31 38 -83 70 -96 59 -24 119
26 107 89 -6 29 -5 30 18 19 14 -6 28 -8 32 -4 11 11 -13 41 -31 38 -8 -1 -36
6 -60 18 -50 22 -52 22 -82 10z m83 -42 c29 -27 30 -62 2 -81 -25 -18 -55 -11
-74 16 -44 63 17 117 72 65z"/>
<path d="M1665 2003 c-11 -11 -20 -12 -26 -6 -16 16 -68 -14 -75 -42 -8 -31
25 -99 49 -103 34 -7 66 8 81 36 l15 27 1 -27 c0 -16 -9 -37 -20 -48 -25 -25
-75 -26 -89 -3 -5 10 -13 14 -17 10 -16 -16 32 -62 68 -65 73 -6 111 64 73
137 -8 16 -12 31 -8 34 10 10 -6 55 -22 60 -8 4 -22 -1 -30 -10z m13 -82 c-6
-51 -68 -34 -68 19 0 34 17 42 48 22 16 -11 22 -23 20 -41z m22 49 c0 -5 -5
-10 -11 -10 -5 0 -7 5 -4 10 3 6 8 10 11 10 2 0 4 -4 4 -10z"/>
<path d="M1600 1733 c-16 -20 -20 -36 -16 -58 4 -16 6 -46 6 -66 -1 -45 28
-73 75 -73 62 0 99 59 72 114 -10 18 -11 32 -5 38 17 17 5 57 -19 60 -18 3
-23 -2 -23 -18 0 -18 4 -21 21 -17 16 4 18 3 9 -9 -9 -10 -17 -11 -30 -4 -27
15 -33 29 -20 45 10 13 8 15 -18 15 -21 0 -37 -8 -52 -27z m50 -13 c0 -10 9
-24 20 -30 24 -13 15 -42 -13 -38 -27 4 -41 30 -33 61 7 31 26 36 26 7z m60
-108 c-20 -36 -83 -44 -99 -13 -10 18 -9 19 23 14 28 -4 37 -1 52 20 25 34 45
17 24 -21z"/>
<path d="M210 1581 c-8 -6 -18 -7 -22 -5 -5 3 -17 3 -28 -1 -17 -5 -19 -15
-18 -88 0 -86 11 -116 34 -97 9 8 18 8 32 -1 27 -17 66 -4 80 26 7 14 12 48
12 76 0 40 -5 55 -25 74 -26 27 -41 30 -65 16z m-30 -58 c0 -34 -1 -36 -16
-21 -10 10 -14 23 -9 37 10 34 25 24 25 -16z m64 11 c11 -28 6 -101 -7 -112
-29 -24 -54 31 -43 93 7 38 38 49 50 19z m-64 -85 c0 -11 -4 -17 -10 -14 -5 3
-10 13 -10 21 0 8 5 14 10 14 6 0 10 -9 10 -21z"/>
<path d="M1610 1500 c-39 -39 -12 -120 39 -120 33 0 64 34 64 70 0 59 -63 90
-103 50z m74 -26 c21 -21 20 -41 -3 -54 -15 -7 -23 -6 -35 6 -9 8 -16 19 -16
24 0 8 28 40 35 40 2 0 11 -7 19 -16z"/>
<path d="M185 1250 c-4 -7 -3 -16 3 -22 14 -14 45 -2 40 15 -6 16 -34 21 -43
7z"/>
<path d="M1660 1240 c0 -13 7 -20 20 -20 13 0 20 7 20 20 0 13 -7 20 -20 20
-13 0 -20 -7 -20 -20z"/>
<path d="M152 1117 c-29 -31 -31 -104 -3 -134 19 -20 19 -20 0 -36 -24 -21
-24 -48 -1 -77 14 -18 25 -22 45 -16 32 8 35 22 7 29 -12 3 -20 14 -20 26 0
30 37 27 72 -6 15 -14 30 -24 33 -21 3 3 1 26 -5 52 -7 33 -7 53 1 67 l11 21
14 -21 c9 -12 19 -21 25 -21 17 0 9 39 -12 62 -11 13 -31 39 -43 58 -18 29
-28 35 -62 38 -31 2 -44 -2 -62 -21z m106 -19 c16 -16 16 -80 0 -96 -17 -17
-53 -15 -68 4 -17 20 -17 68 0 88 15 19 51 21 68 4z m-13 -148 c3 -5 2 -10 -4
-10 -5 0 -13 5 -16 10 -3 6 -2 10 4 10 5 0 13 -4 16 -10z"/>
<path d="M1655 1130 c-3 -5 -13 -6 -22 -3 -17 7 -43 -20 -43 -44 0 -15 35 -53
49 -53 6 0 11 17 13 38 3 32 6 37 28 37 33 0 42 -44 11 -52 -27 -7 -27 -19 -1
-26 26 -7 26 -43 1 -57 -28 -15 -69 4 -77 35 -3 14 -11 25 -16 25 -17 0 1 -53
24 -72 24 -21 87 -24 112 -5 10 7 18 24 17 38 -1 32 -1 69 0 97 1 12 -4 29
-11 37 -14 17 -75 20 -85 5z m-15 -56 c0 -8 -7 -14 -15 -14 -15 0 -21 21 -9
33 10 9 24 -2 24 -19z"/>
<path d="M1661 911 c-7 -5 -22 -6 -32 -4 -35 9 -47 -67 -15 -89 22 -15 36 -7
36 20 0 36 13 55 36 50 12 -2 20 -13 22 -29 2 -20 -2 -28 -20 -33 l-23 -7 23
-11 c27 -13 26 -45 -1 -62 -24 -15 -69 11 -77 44 -4 17 -8 21 -13 12 -12 -18
15 -65 46 -80 58 -28 133 20 110 71 -6 13 -7 31 -2 45 20 55 -40 104 -90 73z
m-21 -62 c0 -20 -15 -26 -25 -9 -9 15 3 43 15 35 5 -3 10 -15 10 -26z"/>
<path d="M260 840 c0 -6 -11 -8 -25 -4 -16 4 -35 0 -51 -11 -23 -15 -25 -22
-21 -58 3 -23 9 -58 15 -77 5 -19 11 -41 13 -49 2 -7 -1 -15 -8 -18 -14 -5
-36 65 -37 119 -1 32 -4 38 -23 38 -12 0 -23 -5 -25 -12 -7 -20 36 -179 47
-175 5 3 37 10 70 17 80 16 102 27 115 59 13 32 1 74 -26 89 -11 6 -13 11 -5
16 15 9 14 49 -1 64 -15 15 -38 16 -38 2z m-10 -34 c0 -2 3 -11 6 -20 4 -11 1
-16 -10 -16 -9 0 -16 -4 -16 -10 0 -5 5 -10 10 -10 6 0 10 -7 10 -16 0 -25
-34 -12 -44 17 -12 34 -2 59 24 59 11 0 20 -2 20 -4z m50 -100 c0 -38 -75 -61
-100 -31 -11 13 -8 15 17 15 34 0 53 16 53 45 1 20 1 20 15 1 8 -11 15 -24 15
-30z"/>
<path d="M1557 689 c-15 -11 -31 -37 -37 -59 -19 -70 19 -120 97 -127 42 -5
52 -2 75 22 30 29 44 80 34 120 -10 41 -32 31 -28 -12 5 -51 -25 -83 -77 -83
-70 0 -108 73 -61 120 25 25 45 25 70 0 20 -20 19 -29 -3 -57 -16 -22 -50 4
-43 33 9 36 -8 29 -22 -9 -15 -42 -15 -48 1 -41 8 3 20 -2 27 -11 19 -23 56
-18 79 11 27 35 26 59 -4 89 -30 31 -73 32 -108 4z"/>
<path d="M285 606 c-11 -9 -29 -16 -41 -16 -31 0 -34 -8 -19 -58 18 -60 45
-86 90 -86 23 0 32 -3 25 -10 -26 -26 6 -76 48 -76 27 0 92 61 92 87 0 11 -10
29 -22 41 -66 62 -70 72 -32 72 14 0 23 4 19 10 -3 6 -18 10 -32 10 -15 0 -34
6 -42 14 -26 23 -64 28 -86 12z m55 -16 c11 -7 7 -10 -18 -10 -20 0 -31 4 -27
10 8 13 26 13 45 0z m-36 -80 c17 0 30 9 39 26 8 15 17 22 20 17 10 -16 -31
-63 -54 -63 -26 0 -59 35 -59 63 1 18 3 17 15 -10 10 -25 20 -33 39 -33z m-17
38 c-3 -8 -6 -5 -6 6 -1 11 2 17 5 13 3 -3 4 -12 1 -19z m38 2 c3 -5 1 -10 -4
-10 -6 0 -11 5 -11 10 0 6 2 10 4 10 3 0 8 -4 11 -10z m80 -66 c-17 -26 -14
-29 16 -14 34 19 22 -15 -17 -50 -24 -21 -40 -28 -46 -22 -6 6 -7 16 -2 24 5
7 9 18 9 23 1 19 39 73 48 68 4 -3 1 -16 -8 -29z"/>
<path d="M1425 509 c-36 -32 -47 -69 -19 -69 11 0 14 -6 9 -20 -4 -13 0 -31 9
-45 24 -36 71 -33 119 6 l37 31 18 -22 18 -22 32 32 c35 35 39 51 17 70 -23
19 -59 4 -101 -40 -38 -40 -70 -50 -92 -28 -23 23 -13 55 24 83 35 26 36 29
19 42 -29 20 -51 16 -90 -18z m65 2 c0 -15 -42 -41 -53 -34 -6 4 0 14 12 25
25 20 41 23 41 9z m175 -79 c-2 -3 -11 0 -18 6 -8 7 -17 9 -21 5 -4 -4 -4 1 0
10 6 17 8 17 25 1 11 -10 17 -19 14 -22z m-32 -9 c9 -9 -13 -34 -24 -27 -14 8
-11 34 4 34 8 0 17 -3 20 -7z"/>
<path d="M1264 450 c-54 -27 -86 -62 -78 -84 5 -12 14 -16 31 -13 18 3 21 1
14 -6 -14 -14 -14 -47 -1 -47 6 0 10 -11 10 -23 0 -32 30 -57 66 -57 37 0 91
33 105 64 17 36 3 91 -30 119 -16 13 -31 33 -33 43 -5 27 -36 28 -84 4z m66
-17 c-1 -7 -70 -44 -115 -62 -24 -10 22 32 54 49 38 20 61 25 61 13z m32 -50
c18 -16 24 -59 10 -79 -26 -37 -95 -57 -105 -31 -7 18 2 31 31 46 27 15 24 31
-8 48 l-24 12 24 10 c36 14 51 13 72 -6z m-72 -43 c0 -5 -7 -10 -15 -10 -8 0
-15 5 -15 10 0 6 7 10 15 10 8 0 15 -4 15 -10z"/>
<path d="M661 396 c-10 -12 -11 -19 -2 -30 9 -10 8 -15 -4 -20 -8 -3 -15 -14
-15 -24 0 -11 -7 -25 -16 -32 -23 -20 -14 -69 17 -92 14 -11 44 -22 67 -25 36
-5 45 -2 72 25 23 24 30 39 30 71 0 22 5 43 10 46 23 14 9 45 -29 65 -57 29
-114 36 -130 16z m115 -38 c27 -13 33 -34 7 -23 -10 4 -37 14 -60 22 -24 8
-43 17 -43 20 0 7 67 -6 96 -19z m-26 -33 c36 -19 46 -49 26 -79 -19 -30 -44
-36 -86 -22 -40 13 -60 40 -43 57 8 8 20 9 43 1 26 -9 32 -9 37 5 3 8 1 24 -6
34 -14 23 -9 24 29 4z m-40 -25 c0 -5 -7 -7 -15 -4 -8 4 -12 10 -9 15 6 11 24
2 24 -11z"/>
<path d="M1070 329 c-24 -10 -40 -26 -40 -42 0 -5 12 1 26 12 27 21 78 28 101
13 12 -7 33 -54 33 -73 0 -23 -42 -49 -80 -49 -33 0 -40 3 -40 20 0 15 9 22
30 27 34 6 37 28 8 47 -13 8 -26 8 -46 0 -22 -9 -33 -8 -47 2 -44 32 -125 -4
-125 -56 0 -17 4 -19 25 -14 19 5 25 2 25 -10 0 -21 -46 -32 -66 -15 -23 19
-14 72 14 84 27 12 29 25 4 25 -32 0 -62 -42 -62 -87 0 -45 25 -75 62 -74 13
0 46 0 74 0 33 1 56 6 64 15 10 13 15 13 36 0 27 -18 83 -13 121 11 43 28 37
127 -10 160 -24 17 -70 19 -107 4z m-79 -75 c11 -14 10 -18 -6 -30 -16 -12
-20 -12 -28 1 -4 8 -17 15 -29 15 -17 0 -18 2 -8 15 16 20 54 19 71 -1z m119
6 c0 -5 -7 -10 -15 -10 -8 0 -15 5 -15 10 0 6 7 10 15 10 8 0 15 -4 15 -10z
m-100 -69 c0 -6 -4 -13 -10 -16 -5 -3 -10 1 -10 9 0 9 5 16 10 16 6 0 10 -4
10 -9z"/>
</g>
</svg>
